<svg xmlns="http://www.w3.org/2000/svg" viewBox="0 0 1000 700"><g fill="none" stroke="#729bc7" stroke-width="1" opacity=".45"><path d="M40 170L220 90 430 210 630 70 890 160 950 390 780 600 500 530 230 640 50 440Z M40 170L320 370 430 210 500 530 780 600 720 350 890 160M50 440L320 370 230 640M220 90L320 370 720 350 630 70M950 390L720 350 500 530"/><circle cx="510" cy="350" r="230" stroke-dasharray="3 12"/><circle cx="510" cy="350" r="310" opacity=".4"/></g><g fill="#d7b56d"><circle cx="40" cy="170" r="4"/><circle cx="40" cy="170" r="12" fill="none" stroke="#89b8ee" opacity=".25"/><circle cx="220" cy="90" r="4"/><circle cx="220" cy="90" r="12" fill="none" stroke="#89b8ee" opacity=".25"/><circle cx="430" cy="210" r="4"/><circle cx="430" cy="210" r="12" fill="none" stroke="#89b8ee" opacity=".25"/><circle cx="630" cy="70" r="4"/><circle cx="630" cy="70" r="12" fill="none" stroke="#89b8ee" opacity=".25"/><circle cx="890" cy="160" r="4"/><circle cx="890" cy="160" r="12" fill="none" stroke="#89b8ee" opacity=".25"/><circle cx="950" cy="390" r="4"/><circle cx="950" cy="390" r="12" fill="none" stroke="#89b8ee" opacity=".25"/><circle cx="780" cy="600" r="4"/><circle cx="780" cy="600" r="12" fill="none" stroke="#89b8ee" opacity=".25"/><circle cx="500" cy="530" r="4"/><circle cx="500" cy="530" r="12" fill="none" stroke="#89b8ee" opacity=".25"/><circle cx="230" cy="640" r="4"/><circle cx="230" cy="640" r="12" fill="none" stroke="#89b8ee" opacity=".25"/><circle cx="50" cy="440" r="4"/><circle cx="50" cy="440" r="12" fill="none" stroke="#89b8ee" opacity=".25"/><circle cx="320" cy="370" r="4"/><circle cx="320" cy="370" r="12" fill="none" stroke="#89b8ee" opacity=".25"/><circle cx="720" cy="350" r="4"/><circle cx="720" cy="350" r="12" fill="none" stroke="#89b8ee" opacity=".25"/></g></svg>